G04*
G04 #@! TF.GenerationSoftware,Altium Limited,Altium Designer,20.2.7 (254)*
G04*
G04 Layer_Physical_Order=1*
G04 Layer_Color=255*
%FSLAX44Y44*%
%MOMM*%
G71*
G04*
G04 #@! TF.SameCoordinates,1E3B47B3-C475-4593-AA8A-A76477CD3576*
G04*
G04*
G04 #@! TF.FilePolarity,Positive*
G04*
G01*
G75*
%ADD13C,0.2540*%
%ADD14O,1.4000X2.1000*%
%ADD15R,1.4000X2.1000*%
%ADD16O,1.2700X0.6000*%
%ADD17R,1.2700X0.6000*%
%ADD18R,0.3500X0.5500*%
%ADD19R,1.0000X0.5000*%
%ADD20O,1.0000X0.5000*%
%ADD21R,0.5500X1.3500*%
%ADD22R,0.6000X0.9500*%
%ADD23O,0.6800X0.4000*%
%ADD24R,0.6800X0.4000*%
%ADD25R,1.8000X0.7000*%
%ADD26R,1.3500X0.5500*%
%ADD27R,1.0000X0.4000*%
%ADD28R,0.4000X1.0000*%
%ADD29R,5.5000X2.1000*%
%ADD53C,5.3000*%
%ADD54C,1.5750*%
%ADD55R,1.5750X1.5750*%
%ADD56C,1.5080*%
%ADD57R,1.5080X1.5080*%
%ADD58O,3.3000X1.6500*%
%ADD59C,1.2700*%
D13*
X1465220Y895858D02*
Y900070D01*
X1206120Y845692D02*
Y864870D01*
Y835534D02*
Y845692D01*
X1209548Y1099058D02*
X1335330D01*
X1076250Y1051508D02*
Y1075892D01*
Y1079500D01*
Y989199D02*
Y1051508D01*
X1350772Y876300D02*
Y887730D01*
X1230120Y978870D02*
Y1084580D01*
X1179068Y1016000D02*
X1198960D01*
X1188720Y1015238D02*
X1198960D01*
X1136396Y847598D02*
Y864870D01*
Y847598D02*
X1148080Y835914D01*
X1158240Y865378D02*
X1174120D01*
X1290810Y958850D02*
X1300988D01*
X1331468Y989330D01*
Y1014984D01*
X1365250Y887730D02*
X1370360D01*
X1327912Y925068D02*
X1365250Y887730D01*
X1301496Y925068D02*
X1327912D01*
X1301496Y904240D02*
Y925068D01*
Y904240D02*
X1351535Y854201D01*
Y808737D02*
Y854201D01*
X1346200Y803402D02*
X1351535Y808737D01*
X1330960Y803402D02*
X1346200D01*
X1326135Y808227D02*
X1330960Y803402D01*
X1326135Y808227D02*
Y843816D01*
X1304951Y865000D02*
X1326135Y843816D01*
X1300480Y865000D02*
X1304951D01*
X1070025Y941070D02*
X1083750D01*
X1055920Y926964D02*
X1070025Y941070D01*
X1025206Y926964D02*
X1055920D01*
X1007110Y945060D02*
X1025206Y926964D01*
X1041908Y864870D02*
X1083750D01*
X1022350Y845312D02*
X1041908Y864870D01*
X1022350Y807720D02*
Y845312D01*
X1017270Y802640D02*
X1022350Y807720D01*
X996950Y802640D02*
X1017270D01*
X984250Y815340D02*
X996950Y802640D01*
X1292730Y903354D02*
Y914400D01*
Y903354D02*
X1339850Y856234D01*
Y815340D02*
Y856234D01*
X1076250Y1051508D02*
X1087120Y1040638D01*
X1204642D01*
X1208960Y1036320D01*
Y1016000D02*
Y1036320D01*
X1342360Y887730D02*
X1350772D01*
Y876300D02*
X1356615Y870457D01*
Y794513D02*
Y870457D01*
X1341120Y779018D02*
X1356615Y794513D01*
X1289812Y779018D02*
X1341120D01*
X1276350Y792480D02*
X1289812Y779018D01*
X1276350Y792480D02*
Y826008D01*
X1262126Y840232D02*
X1276350Y826008D01*
X1262126Y840232D02*
Y903076D01*
X1271120Y905870D01*
X1087830Y1084580D02*
X1148820D01*
X1082750Y1079500D02*
X1087830Y1084580D01*
X982110Y842880D02*
X1009650Y815340D01*
X982110Y842880D02*
Y945060D01*
X1131316Y1008126D02*
X1139190Y1000252D01*
X1156462D01*
X1161288Y995426D01*
X1198880D01*
X1206120Y988186D01*
Y978870D02*
Y988186D01*
X1198120Y966470D02*
Y978870D01*
X1176274Y944624D02*
X1198120Y966470D01*
X1176274Y927354D02*
Y944624D01*
X1136396Y847598D02*
X1138174Y842264D01*
X1190120Y864870D02*
Y872366D01*
X1193800Y876046D01*
X1249172D01*
X1251966Y878840D01*
X1182120Y859620D02*
Y864870D01*
X1173654Y851154D02*
X1182120Y859620D01*
X1162558Y851154D02*
X1173654D01*
X1190752Y881870D02*
X1195088Y886206D01*
X1157120Y881870D02*
X1190752D01*
X1123188Y915670D02*
X1138750D01*
X1197102Y909311D02*
X1212351D01*
X1176283Y888492D02*
X1197102Y909311D01*
X1162412Y888492D02*
X1176283D01*
X1157120Y889870D02*
X1162412Y888492D01*
X1126460Y966440D02*
X1144016Y983996D01*
X1126460Y937037D02*
Y966440D01*
Y937037D02*
X1135126Y928370D01*
X1138750D01*
X1131540Y956534D02*
X1139698Y964692D01*
X1131540Y944880D02*
Y956534D01*
Y944880D02*
X1135350Y941070D01*
X1138750D01*
X1170412Y897870D02*
X1171194Y898652D01*
X1157120Y897870D02*
X1170412D01*
X1186434Y924719D02*
X1204817Y943102D01*
X1186434Y919877D02*
Y924719D01*
X1183640Y917083D02*
X1186434Y919877D01*
X1173717Y917083D02*
X1183640D01*
X1162505Y905870D02*
X1173717Y917083D01*
X1157120Y905870D02*
X1162505D01*
X1112650Y1005840D02*
Y1017270D01*
Y1005840D02*
X1124334Y994156D01*
X1150620D01*
X1166114Y978662D01*
Y916664D02*
Y978662D01*
X1157120Y913870D02*
X1166114Y916664D01*
X1256603Y913870D02*
X1271120D01*
X1246400Y924074D02*
X1256603Y913870D01*
X1305052Y984250D02*
X1305814Y983488D01*
X1290810Y984250D02*
X1305052D01*
X1268476Y1047750D02*
X1290810D01*
X1260348Y1039622D02*
X1268476Y1047750D01*
X1260348Y966696D02*
Y1039622D01*
Y966696D02*
X1265174Y961870D01*
X1271120D01*
X1076250Y1075892D02*
X1082040Y1070102D01*
X1180592D01*
X1209548Y1099058D01*
X1335330Y1096010D02*
Y1099058D01*
X1383810Y971550D02*
X1392936D01*
X1396746Y975360D01*
Y989076D01*
X1402080Y994410D01*
X1409700D01*
X1283131Y1060450D02*
X1290810D01*
X1277411Y1054730D02*
X1283131Y1060450D01*
X1259840Y1054730D02*
X1277411D01*
X1254120Y1049010D02*
X1259840Y1054730D01*
X1254120Y978870D02*
Y1049010D01*
X1257578Y929870D02*
X1271120D01*
X1235202Y952246D02*
X1257578Y929870D01*
X1315974Y1000252D02*
Y1033018D01*
X1310640Y994918D02*
X1315974Y1000252D01*
X1298956Y994918D02*
X1310640D01*
X1296924Y996950D02*
X1298956Y994918D01*
X1290810Y996950D02*
X1296924D01*
X1238120Y978870D02*
Y1058710D01*
X1249680Y1070270D01*
X1272794D01*
Y1074626D01*
X1278128Y1079960D01*
X1341834D01*
X1347470Y1085596D01*
Y1103376D01*
X1341120Y1109726D02*
X1347470Y1103376D01*
X1185164Y1109726D02*
X1341120D01*
X1160018Y1084580D02*
X1185164Y1109726D01*
X1148820Y1084580D02*
X1160018D01*
X1241320D02*
X1275110D01*
X1275570Y1085040D01*
X1336500D01*
X1341830Y1090370D01*
Y1096010D01*
X1118108Y897128D02*
X1123950Y902970D01*
X1138750D01*
X1179068Y847344D02*
X1188720D01*
X1172718Y840994D02*
X1179068Y847344D01*
X1158240Y840994D02*
X1172718D01*
X1152398Y846836D02*
X1158240Y840994D01*
X1152398Y846836D02*
Y859536D01*
X1158240Y865378D01*
X1174120Y864870D02*
Y865378D01*
X1142870Y1008256D02*
Y1017270D01*
Y1008256D02*
X1146107D01*
X1148777Y1005586D01*
X1176274D01*
X1275588Y980973D02*
Y1010666D01*
Y980973D02*
X1285011Y971550D01*
X1290810D01*
X1271120Y945870D02*
X1299438D01*
X1341628Y988060D01*
Y1034288D01*
X1330960Y1044956D02*
X1341628Y1034288D01*
X1309370Y1044956D02*
X1330960D01*
X1305814Y1041400D02*
X1309370Y1044956D01*
X1305814Y1027684D02*
Y1041400D01*
X1300480Y1022350D02*
X1305814Y1027684D01*
X1290810Y1022350D02*
X1300480D01*
X1383810Y996950D02*
X1391666D01*
X1395476Y1000760D01*
X1436624D01*
X1198960Y1015238D02*
Y1016000D01*
X1230120Y1084580D02*
X1241320D01*
X1283040Y1073150D02*
X1290810D01*
X1275080Y1065190D02*
X1283040Y1073150D01*
X1254674Y1065190D02*
X1275080D01*
X1246120Y1056636D02*
X1254674Y1065190D01*
X1246120Y978870D02*
Y1056636D01*
X1032110Y945060D02*
X1076250Y989199D01*
X1208960Y1000966D02*
Y1016000D01*
Y1000966D02*
X1222120Y987806D01*
Y978870D02*
Y987806D01*
X1330836Y887730D02*
X1342360D01*
X1308230Y910336D02*
X1330836Y887730D01*
X1308230Y910336D02*
Y914400D01*
X1300480Y829310D02*
Y849500D01*
Y829310D02*
X1314450Y815340D01*
X1279652Y1035050D02*
X1290810D01*
X1265428Y1020826D02*
X1279652Y1035050D01*
X1265428Y982413D02*
Y1020826D01*
Y982413D02*
X1280160Y967681D01*
Y956410D02*
Y967681D01*
X1277620Y953870D02*
X1280160Y956410D01*
X1271120Y953870D02*
X1277620D01*
X1136650Y815340D02*
Y827024D01*
X1131570D02*
X1136650D01*
X1128014Y830580D02*
X1131570Y827024D01*
X1128014Y830580D02*
Y866834D01*
X1138750Y877570D01*
X1136396Y864870D02*
X1138750D01*
X1148080Y835914D02*
X1193800D01*
X1198880Y840994D01*
Y857760D01*
X1198120Y858520D02*
X1198880Y857760D01*
X1198120Y858520D02*
Y864870D01*
X1083750D02*
X1112520D01*
X1122934Y854456D01*
Y822960D02*
Y854456D01*
Y822960D02*
X1123950Y821944D01*
Y807720D02*
Y821944D01*
Y807720D02*
X1129030Y802640D01*
X1143508D01*
X1148588Y807720D01*
Y822960D01*
X1156462Y830834D01*
X1201420D01*
X1206120Y835534D01*
Y845692D02*
X1224788Y827024D01*
Y790448D02*
Y827024D01*
Y790448D02*
X1256030Y759206D01*
X1396492D01*
X1476248Y838962D01*
Y884830D01*
X1465220Y895858D02*
X1476248Y884830D01*
X1321345Y958850D02*
X1383810D01*
X1292730Y930235D02*
X1321345Y958850D01*
X1292730Y914400D02*
Y930235D01*
X1138750Y890270D02*
X1143000D01*
X1146048Y887222D01*
Y878840D02*
Y887222D01*
Y878840D02*
X1148842Y876046D01*
X1178560D01*
X1182120Y872486D01*
Y864870D02*
Y872486D01*
X1465220Y857470D02*
Y868680D01*
X1458616Y875284D02*
X1465220Y868680D01*
X1363218Y875284D02*
X1458616D01*
X1350772Y887730D02*
X1363218Y875284D01*
X1262278Y937870D02*
X1271120D01*
X1255268Y944880D02*
X1262278Y937870D01*
X1255268Y944880D02*
Y954532D01*
X1301242Y1009650D02*
X1305814Y1005078D01*
X1290810Y1009650D02*
X1301242D01*
X1150620Y905870D02*
X1157120D01*
X1148080Y908410D02*
X1150620Y905870D01*
X1148080Y908410D02*
Y948690D01*
X1143000Y953770D02*
X1148080Y948690D01*
X1138750Y953770D02*
X1143000D01*
X1465220Y900070D02*
Y948470D01*
X1452880Y887730D02*
X1465220Y900070D01*
X1370360Y887730D02*
X1452880D01*
X1097150Y960120D02*
Y1017270D01*
X1090800Y953770D02*
X1097150Y960120D01*
X1083750Y953770D02*
X1090800D01*
X1463700Y1032510D02*
X1468882D01*
X1472692Y1028700D01*
Y978768D02*
Y1028700D01*
X1465220Y971296D02*
X1472692Y978768D01*
X1465220Y948470D02*
Y971296D01*
X1376680Y971550D02*
X1383810D01*
X1368552Y979678D02*
X1376680Y971550D01*
X1368552Y979678D02*
Y1026922D01*
X1376680Y1035050D01*
X1383810D01*
X1376680Y1073150D02*
X1383810D01*
X1373632Y1070102D02*
X1376680Y1073150D01*
X1373632Y1050798D02*
Y1070102D01*
Y1050798D02*
X1376680Y1047750D01*
X1383810D01*
X1376680Y984250D02*
X1383810D01*
X1373632Y987298D02*
X1376680Y984250D01*
X1373632Y987298D02*
Y1006602D01*
X1376680Y1009650D01*
X1383810D01*
X1083750Y941070D02*
Y953770D01*
Y928370D02*
Y941070D01*
Y915670D02*
Y928370D01*
Y902970D02*
Y915670D01*
Y890270D02*
Y902970D01*
Y877570D02*
Y890270D01*
Y864870D02*
Y877570D01*
X1383810Y958850D02*
Y971550D01*
Y1035050D02*
Y1047750D01*
X1177798Y1017270D02*
X1179068Y1016000D01*
X1158370Y1017270D02*
X1177798D01*
X1401826Y1032510D02*
X1409700D01*
X1391666Y1022350D02*
X1401826Y1032510D01*
X1383810Y1022350D02*
X1391666D01*
D14*
X1465220Y948470D02*
D03*
X1420220D02*
D03*
X1465220Y857470D02*
D03*
D15*
X1420220D02*
D03*
D16*
X1290810Y1073150D02*
D03*
Y1060450D02*
D03*
Y1047750D02*
D03*
Y1035050D02*
D03*
Y1022350D02*
D03*
Y1009650D02*
D03*
Y996950D02*
D03*
Y984250D02*
D03*
Y971550D02*
D03*
Y958850D02*
D03*
X1383810Y1073150D02*
D03*
Y1060450D02*
D03*
Y1047750D02*
D03*
Y1035050D02*
D03*
Y1022350D02*
D03*
Y1009650D02*
D03*
Y996950D02*
D03*
Y984250D02*
D03*
Y971550D02*
D03*
D17*
Y958850D02*
D03*
D18*
X1335330Y1096010D02*
D03*
X1341830D02*
D03*
X1076250Y1079500D02*
D03*
X1082750D02*
D03*
D19*
X1409700Y1032510D02*
D03*
D20*
Y1019810D02*
D03*
Y1007110D02*
D03*
Y994410D02*
D03*
X1463700Y1032510D02*
D03*
Y1019810D02*
D03*
Y1007110D02*
D03*
Y994410D02*
D03*
D21*
X1158370Y1017270D02*
D03*
X1142870D02*
D03*
X1308230Y914400D02*
D03*
X1292730D02*
D03*
X1112650Y1017270D02*
D03*
X1097150D02*
D03*
D22*
X1208960Y1016000D02*
D03*
X1198960D02*
D03*
D23*
X1138750Y864870D02*
D03*
Y877570D02*
D03*
Y890270D02*
D03*
Y902970D02*
D03*
Y915670D02*
D03*
Y928370D02*
D03*
Y941070D02*
D03*
Y953770D02*
D03*
X1083750Y864870D02*
D03*
Y877570D02*
D03*
Y890270D02*
D03*
Y902970D02*
D03*
Y915670D02*
D03*
Y928370D02*
D03*
Y941070D02*
D03*
D24*
Y953770D02*
D03*
D25*
X1370360Y887730D02*
D03*
X1342360D02*
D03*
D26*
X1300480Y865000D02*
D03*
Y849500D02*
D03*
D27*
X1271120Y881870D02*
D03*
Y889870D02*
D03*
Y897870D02*
D03*
Y905870D02*
D03*
Y913870D02*
D03*
Y921870D02*
D03*
Y929870D02*
D03*
Y937870D02*
D03*
Y945870D02*
D03*
Y953870D02*
D03*
Y961870D02*
D03*
X1157120D02*
D03*
Y953870D02*
D03*
Y945870D02*
D03*
Y937870D02*
D03*
Y929870D02*
D03*
Y921870D02*
D03*
Y913870D02*
D03*
Y905870D02*
D03*
Y897870D02*
D03*
Y889870D02*
D03*
Y881870D02*
D03*
D28*
X1254120Y978870D02*
D03*
X1246120D02*
D03*
X1238120D02*
D03*
X1230120D02*
D03*
X1222120D02*
D03*
X1214120D02*
D03*
X1206120D02*
D03*
X1198120D02*
D03*
X1190120D02*
D03*
X1182120D02*
D03*
X1174120D02*
D03*
Y864870D02*
D03*
X1182120D02*
D03*
X1190120D02*
D03*
X1198120D02*
D03*
X1206120D02*
D03*
X1214120D02*
D03*
X1222120D02*
D03*
X1230120D02*
D03*
X1238120D02*
D03*
X1246120D02*
D03*
X1254120D02*
D03*
D29*
X1148820Y1084580D02*
D03*
X1241320D02*
D03*
D53*
X1653850Y500340D02*
D03*
X903850D02*
D03*
X1653850Y810340D02*
D03*
X903850D02*
D03*
D54*
X1339850Y815340D02*
D03*
X1314450D02*
D03*
X1289050D02*
D03*
X1263650D02*
D03*
X1238250D02*
D03*
X1212850D02*
D03*
X1187450D02*
D03*
X1162050D02*
D03*
X1136650D02*
D03*
X1111250D02*
D03*
X1085850D02*
D03*
X1060450D02*
D03*
X1035050D02*
D03*
X1009650D02*
D03*
X984250D02*
D03*
D55*
X958850D02*
D03*
D56*
X982110Y945060D02*
D03*
X1007110D02*
D03*
D57*
X1032110D02*
D03*
D58*
X1054610Y904060D02*
D03*
X959610D02*
D03*
D59*
X1331468Y1014984D02*
D03*
X1131316Y1008126D02*
D03*
X1176274Y927354D02*
D03*
X1138174Y842264D02*
D03*
X1251966Y878840D02*
D03*
X1162558Y851154D02*
D03*
X1195088Y886206D02*
D03*
X1123188Y915670D02*
D03*
X1212351Y909311D02*
D03*
X1144016Y983996D02*
D03*
X1139698Y964692D02*
D03*
X1171194Y898652D02*
D03*
X1204817Y943102D02*
D03*
X1246400Y924074D02*
D03*
X1305814Y983488D02*
D03*
X1235202Y952246D02*
D03*
X1315974Y1033018D02*
D03*
X1118108Y897128D02*
D03*
X1188720Y847344D02*
D03*
X1176274Y1005586D02*
D03*
X1275588Y1010666D02*
D03*
X1436624Y1000760D02*
D03*
X1188720Y1015238D02*
D03*
X1255268Y954532D02*
D03*
X1305814Y1005078D02*
D03*
M02*
