M48
;Layer_Color=9474304
;FILE_FORMAT=2:5
INCH,LZ
;TYPE=PLATED
T1F00S00C0.02800
T2F00S00C0.03937
T3F00S00C0.04134
T5F00S00C0.11024
%
T01
X04481Y03316
X04577Y03351
X0468Y03336
X04611Y03538
X04631Y03651
X04422Y03605
X04402Y03532
X04487Y03798
X04504Y03874
X04454Y03969
X04631Y03959
X0468Y03997
X0474337Y03713
X04863Y03749
X04942Y03758
X0490709Y0363809
X0477303Y0357997
X0470507Y03489
X04929Y0346
X05022Y03979
X05141Y03957
Y03872
X05242Y03996
X05181Y04067
X05656Y0394
T02
X0386657Y0372071
X03965
X0406343
T03
X03775Y0321
X03875
X03975
X04075
X04175
X04275
X04375
X04475
X04575
X04675
X04775
X04875
X04975
X05075
X05175
X05275
T05
X0651122Y0196984
X0355846
Y0319031
X0651122
M30
