G04*
G04 #@! TF.GenerationSoftware,Altium Limited,Altium Designer,20.2.7 (254)*
G04*
G04 Layer_Color=65535*
%FSLAX44Y44*%
%MOMM*%
G71*
G04*
G04 #@! TF.SameCoordinates,1E3B47B3-C475-4593-AA8A-A76477CD3576*
G04*
G04*
G04 #@! TF.FilePolarity,Positive*
G04*
G01*
G75*
%ADD10C,0.4000*%
%ADD11C,0.2000*%
%ADD12C,0.1270*%
%ADD13C,0.2540*%
D10*
X956850Y848840D02*
G03*
X956850Y848840I-2000J0D01*
G01*
D11*
X1397720Y891720D02*
G03*
X1397720Y914220I0J11250D01*
G01*
X1340485Y952500D02*
G03*
X1334135Y952500I-3175J0D01*
G01*
X1433525Y1038860D02*
G03*
X1439875Y1038860I3175J0D01*
G01*
X1108075Y960120D02*
G03*
X1114425Y960120I3175J0D01*
G01*
X1397720Y929620D02*
X1478280D01*
Y876320D02*
Y929620D01*
X1397720Y914220D02*
Y929620D01*
Y876320D02*
X1478280D01*
X1397720D02*
Y891720D01*
X1369110Y952500D02*
Y1079500D01*
X1305510D02*
X1369110D01*
X1305510Y952500D02*
Y1079500D01*
Y952500D02*
X1334135D01*
X1340485D02*
X1369110D01*
X1330960Y1089660D02*
X1346200D01*
Y1102360D01*
X1330960D02*
X1346200D01*
X1330960Y1089660D02*
Y1102360D01*
X1423050Y1038860D02*
X1433525D01*
X1439875D02*
X1450350D01*
Y988060D02*
Y1038860D01*
X1423050Y988060D02*
X1450350D01*
X1423050D02*
Y1038860D01*
X1136650Y1007110D02*
X1164590D01*
Y1027430D01*
X1136650D02*
X1164590D01*
X1136650Y1007110D02*
Y1027430D01*
X1192530Y1008380D02*
X1215390D01*
X1192530D02*
Y1024890D01*
X1215390D01*
Y1008380D02*
Y1024890D01*
X1095500Y858520D02*
Y960120D01*
Y858520D02*
X1127000D01*
Y960120D01*
X1114425D02*
X1127000D01*
X1095500D02*
X1108075D01*
X1330960Y875030D02*
X1341120Y864870D01*
X1330960Y875030D02*
Y900430D01*
X1341120Y864870D02*
X1383030D01*
X1330960Y900430D02*
X1341120Y910590D01*
X1383030D01*
Y864870D02*
Y910590D01*
X1290320Y843280D02*
X1310640D01*
X1290320D02*
Y871220D01*
X1310640D01*
Y843280D02*
Y871220D01*
X1260770Y885570D02*
Y968520D01*
X1167470D02*
X1260770D01*
X1167470Y875220D02*
Y968520D01*
Y875220D02*
X1250420D01*
X1260770Y885570D01*
X1286510Y904240D02*
X1314450D01*
Y924560D01*
X1286510D02*
X1314450D01*
X1286510Y904240D02*
Y924560D01*
X1106820Y1059580D02*
Y1084580D01*
Y1059580D02*
X1283320D01*
Y1109580D01*
X1106820D02*
X1283320D01*
X1106820Y1084580D02*
Y1109580D01*
X1071880Y1073150D02*
X1087120D01*
Y1085850D01*
X1071880D02*
X1087120D01*
X1071880Y1073150D02*
Y1085850D01*
X1090930Y1007110D02*
X1118870D01*
Y1027430D01*
X1090930D02*
X1118870D01*
X1090930Y1007110D02*
Y1027430D01*
D12*
X878850Y530040D02*
Y780640D01*
X1678850Y530040D02*
Y780640D01*
X933550Y475340D02*
X1624150D01*
X933550Y835340D02*
X1624150D01*
X946610Y888060D02*
Y892060D01*
Y888060D02*
X1067610D01*
Y892060D01*
Y916060D02*
Y995060D01*
X946610D02*
X1067610D01*
X946610Y916060D02*
Y995060D01*
D13*
X877120Y880807D02*
Y865572D01*
X884737D01*
X887277Y868111D01*
Y878268D01*
X884737Y880807D01*
X877120D01*
X892355Y865572D02*
X897433D01*
X894894D01*
Y875729D01*
X892355D01*
X905051Y865572D02*
X912669D01*
X915208Y868111D01*
X912669Y870650D01*
X907590D01*
X905051Y873189D01*
X907590Y875729D01*
X915208D01*
X920286Y860494D02*
Y875729D01*
X927904D01*
X930443Y873189D01*
Y868111D01*
X927904Y865572D01*
X920286D01*
X935521D02*
X940600D01*
X938060D01*
Y880807D01*
X935521D01*
X950756Y875729D02*
X955835D01*
X958374Y873189D01*
Y865572D01*
X950756D01*
X948217Y868111D01*
X950756Y870650D01*
X958374D01*
X963452Y875729D02*
Y868111D01*
X965991Y865572D01*
X973609D01*
Y863033D01*
X971070Y860494D01*
X968530D01*
X973609Y865572D02*
Y875729D01*
X1399286Y967486D02*
Y982721D01*
X1406904D01*
X1409443Y980182D01*
Y975104D01*
X1406904Y972564D01*
X1399286D01*
X1404364D02*
X1409443Y967486D01*
X1424678Y982721D02*
X1414521D01*
Y967486D01*
X1424678D01*
X1414521Y975104D02*
X1419599D01*
X1439913Y980182D02*
X1437374Y982721D01*
X1432295D01*
X1429756Y980182D01*
Y977643D01*
X1432295Y975104D01*
X1437374D01*
X1439913Y972564D01*
Y970025D01*
X1437374Y967486D01*
X1432295D01*
X1429756Y970025D01*
X1455148Y982721D02*
X1444991D01*
Y967486D01*
X1455148D01*
X1444991Y975104D02*
X1450070D01*
X1460226Y982721D02*
X1470383D01*
X1465305D01*
Y967486D01*
X951234Y1151892D02*
Y1167128D01*
X958852D01*
X961391Y1164588D01*
Y1159510D01*
X958852Y1156971D01*
X951234D01*
X956312D02*
X961391Y1151892D01*
X976626D02*
X966469D01*
X976626Y1162049D01*
Y1164588D01*
X974087Y1167128D01*
X969008D01*
X966469Y1164588D01*
X1286002Y1103371D02*
Y1090675D01*
X1288541Y1088136D01*
X1293620D01*
X1296159Y1090675D01*
Y1103371D01*
X1311394Y1088136D02*
X1301237D01*
X1311394Y1098293D01*
Y1100832D01*
X1308855Y1103371D01*
X1303776D01*
X1301237Y1100832D01*
X1342641Y1123692D02*
X1340101Y1126231D01*
X1335023D01*
X1332484Y1123692D01*
Y1113535D01*
X1335023Y1110996D01*
X1340101D01*
X1342641Y1113535D01*
X1357876Y1110996D02*
X1347719D01*
X1357876Y1121153D01*
Y1123692D01*
X1355337Y1126231D01*
X1350258D01*
X1347719Y1123692D01*
X1406144Y1062629D02*
Y1049933D01*
X1408683Y1047394D01*
X1413761D01*
X1416301Y1049933D01*
Y1062629D01*
X1421379Y1060090D02*
X1423918Y1062629D01*
X1428997D01*
X1431536Y1060090D01*
Y1057551D01*
X1428997Y1055012D01*
X1426457D01*
X1428997D01*
X1431536Y1052472D01*
Y1049933D01*
X1428997Y1047394D01*
X1423918D01*
X1421379Y1049933D01*
X1138174Y1036066D02*
Y1051301D01*
X1145791D01*
X1148331Y1048762D01*
Y1043683D01*
X1145791Y1041144D01*
X1138174D01*
X1143252D02*
X1148331Y1036066D01*
X1163566Y1051301D02*
X1158487Y1048762D01*
X1153409Y1043683D01*
Y1038605D01*
X1155948Y1036066D01*
X1161027D01*
X1163566Y1038605D01*
Y1041144D01*
X1161027Y1043683D01*
X1153409D01*
X1204211Y1046222D02*
X1201672Y1048761D01*
X1196593D01*
X1194054Y1046222D01*
Y1036065D01*
X1196593Y1033526D01*
X1201672D01*
X1204211Y1036065D01*
X1216907Y1033526D02*
Y1048761D01*
X1209289Y1041143D01*
X1219446D01*
X1081786Y968688D02*
Y983923D01*
X1089404D01*
X1091943Y981384D01*
Y976305D01*
X1089404Y973766D01*
X1081786D01*
X1086864D02*
X1091943Y968688D01*
X1097021D02*
X1102099D01*
X1099560D01*
Y983923D01*
X1097021Y981384D01*
X1342611Y931922D02*
X1340072Y934461D01*
X1334993D01*
X1332454Y931922D01*
Y921765D01*
X1334993Y919226D01*
X1340072D01*
X1342611Y921765D01*
X1347689Y919226D02*
X1352767D01*
X1350228D01*
Y934461D01*
X1347689Y931922D01*
X1291844Y879856D02*
Y895091D01*
X1299462D01*
X1302001Y892552D01*
Y887474D01*
X1299462Y884934D01*
X1291844D01*
X1296922D02*
X1302001Y879856D01*
X1307079Y892552D02*
X1309618Y895091D01*
X1314697D01*
X1317236Y892552D01*
Y890013D01*
X1314697Y887474D01*
X1312157D01*
X1314697D01*
X1317236Y884934D01*
Y882395D01*
X1314697Y879856D01*
X1309618D01*
X1307079Y882395D01*
X1153668Y1007717D02*
Y995021D01*
X1156207Y992482D01*
X1161285D01*
X1163825Y995021D01*
Y1007717D01*
X1168903Y992482D02*
X1173981D01*
X1171442D01*
Y1007717D01*
X1168903Y1005178D01*
X1288034Y933196D02*
Y948431D01*
X1295652D01*
X1298191Y945892D01*
Y940814D01*
X1295652Y938274D01*
X1288034D01*
X1293112D02*
X1298191Y933196D01*
X1310887D02*
Y948431D01*
X1303269Y940814D01*
X1313426D01*
X1118613Y1135884D02*
X1116074Y1138423D01*
X1110995D01*
X1108456Y1135884D01*
Y1125727D01*
X1110995Y1123188D01*
X1116074D01*
X1118613Y1125727D01*
X1123691Y1133345D02*
Y1123188D01*
Y1128266D01*
X1126230Y1130806D01*
X1128769Y1133345D01*
X1131309D01*
X1138926D02*
Y1125727D01*
X1141465Y1123188D01*
X1149083D01*
Y1120649D01*
X1146544Y1118110D01*
X1144005D01*
X1149083Y1123188D02*
Y1133345D01*
X1154161Y1123188D02*
X1161779D01*
X1164318Y1125727D01*
X1161779Y1128266D01*
X1156700D01*
X1154161Y1130806D01*
X1156700Y1133345D01*
X1164318D01*
X1171936Y1135884D02*
Y1133345D01*
X1169396D01*
X1174475D01*
X1171936D01*
Y1125727D01*
X1174475Y1123188D01*
X1184631Y1133345D02*
X1189710D01*
X1192249Y1130806D01*
Y1123188D01*
X1184631D01*
X1182092Y1125727D01*
X1184631Y1128266D01*
X1192249D01*
X1197327Y1123188D02*
X1202406D01*
X1199866D01*
Y1138423D01*
X1197327D01*
X1083561Y1107182D02*
X1081021Y1109721D01*
X1075943D01*
X1073404Y1107182D01*
Y1097025D01*
X1075943Y1094486D01*
X1081021D01*
X1083561Y1097025D01*
X1088639Y1107182D02*
X1091178Y1109721D01*
X1096257D01*
X1098796Y1107182D01*
Y1104643D01*
X1096257Y1102104D01*
X1093717D01*
X1096257D01*
X1098796Y1099564D01*
Y1097025D01*
X1096257Y1094486D01*
X1091178D01*
X1088639Y1097025D01*
X1092454Y1036066D02*
Y1051301D01*
X1100071D01*
X1102611Y1048762D01*
Y1043683D01*
X1100071Y1041144D01*
X1092454D01*
X1097532D02*
X1102611Y1036066D01*
X1117846Y1051301D02*
X1107689D01*
Y1043683D01*
X1112767Y1046223D01*
X1115307D01*
X1117846Y1043683D01*
Y1038605D01*
X1115307Y1036066D01*
X1110228D01*
X1107689Y1038605D01*
M02*
