G04*
G04 #@! TF.GenerationSoftware,Altium Limited,Altium Designer,20.2.7 (254)*
G04*
G04 Layer_Color=16711935*
%FSLAX44Y44*%
%MOMM*%
G71*
G04*
G04 #@! TF.SameCoordinates,1E3B47B3-C475-4593-AA8A-A76477CD3576*
G04*
G04*
G04 #@! TF.FilePolarity,Positive*
G04*
G01*
G75*
%ADD60C,1.2000*%
G36*
X13716000Y-4203812D02*
X13713043Y-4204941D01*
Y-4209042D01*
X13716000Y-4210097D01*
Y-4211464D01*
X13706238Y-4207735D01*
Y-4206323D01*
X13716000Y-4202356D01*
Y-4203812D01*
D02*
G37*
G36*
X13713325Y-4212088D02*
X13713444Y-4212103D01*
X13713563Y-4212118D01*
X13713711Y-4212148D01*
X13713860Y-4212192D01*
X13714202Y-4212296D01*
X13714395Y-4212371D01*
X13714573Y-4212475D01*
X13714751Y-4212579D01*
X13714929Y-4212697D01*
X13715109Y-4212846D01*
X13715287Y-4213010D01*
X13715302Y-4213024D01*
X13715331Y-4213054D01*
X13715360Y-4213099D01*
X13715420Y-4213173D01*
X13715494Y-4213262D01*
X13715569Y-4213381D01*
X13715643Y-4213515D01*
X13715718Y-4213648D01*
X13715807Y-4213812D01*
X13715881Y-4213990D01*
X13715955Y-4214183D01*
X13716029Y-4214391D01*
X13716089Y-4214614D01*
X13716118Y-4214852D01*
X13716149Y-4215105D01*
X13716163Y-4215357D01*
Y-4215476D01*
X13716149Y-4215565D01*
X13716133Y-4215684D01*
X13716118Y-4215803D01*
X13716104Y-4215952D01*
X13716074Y-4216100D01*
X13715985Y-4216442D01*
X13715836Y-4216799D01*
X13715762Y-4216977D01*
X13715658Y-4217140D01*
X13715540Y-4217319D01*
X13715405Y-4217482D01*
X13715391Y-4217497D01*
X13715376Y-4217512D01*
X13715331Y-4217556D01*
X13715271Y-4217616D01*
X13715182Y-4217675D01*
X13715093Y-4217750D01*
X13714989Y-4217839D01*
X13714871Y-4217913D01*
X13714573Y-4218091D01*
X13714231Y-4218240D01*
X13713845Y-4218374D01*
X13713638Y-4218418D01*
X13713414Y-4218448D01*
X13713251Y-4217244D01*
X13713265D01*
X13713296Y-4217230D01*
X13713354D01*
X13713414Y-4217200D01*
X13713593Y-4217155D01*
X13713816Y-4217081D01*
X13714053Y-4216992D01*
X13714305Y-4216873D01*
X13714529Y-4216724D01*
X13714722Y-4216561D01*
X13714736Y-4216531D01*
X13714796Y-4216472D01*
X13714856Y-4216368D01*
X13714945Y-4216219D01*
X13715020Y-4216056D01*
X13715093Y-4215847D01*
X13715153Y-4215610D01*
X13715167Y-4215357D01*
Y-4215268D01*
X13715153Y-4215209D01*
X13715138Y-4215060D01*
X13715093Y-4214867D01*
X13715020Y-4214629D01*
X13714929Y-4214391D01*
X13714781Y-4214154D01*
X13714589Y-4213931D01*
X13714558Y-4213901D01*
X13714484Y-4213842D01*
X13714365Y-4213752D01*
X13714187Y-4213634D01*
X13713978Y-4213530D01*
X13713727Y-4213441D01*
X13713444Y-4213381D01*
X13713132Y-4213351D01*
X13713116D01*
X13713102D01*
X13713058D01*
X13712998Y-4213366D01*
X13712849Y-4213381D01*
X13712656Y-4213426D01*
X13712449Y-4213485D01*
X13712211Y-4213589D01*
X13711987Y-4213723D01*
X13711780Y-4213901D01*
X13711750Y-4213931D01*
X13711691Y-4213990D01*
X13711616Y-4214109D01*
X13711512Y-4214272D01*
X13711409Y-4214466D01*
X13711334Y-4214703D01*
X13711274Y-4214956D01*
X13711245Y-4215253D01*
Y-4215387D01*
X13711260Y-4215491D01*
X13711274Y-4215610D01*
X13711289Y-4215758D01*
X13711320Y-4215922D01*
X13711364Y-4216100D01*
X13710309Y-4215966D01*
Y-4215892D01*
X13710323Y-4215833D01*
Y-4215640D01*
X13710309Y-4215506D01*
X13710280Y-4215313D01*
X13710234Y-4215105D01*
X13710160Y-4214882D01*
X13710071Y-4214644D01*
X13709938Y-4214406D01*
X13709922Y-4214377D01*
X13709863Y-4214302D01*
X13709758Y-4214213D01*
X13709625Y-4214094D01*
X13709462Y-4213976D01*
X13709254Y-4213886D01*
X13709001Y-4213812D01*
X13708704Y-4213782D01*
X13708689D01*
X13708674D01*
X13708600D01*
X13708481Y-4213812D01*
X13708318Y-4213842D01*
X13708154Y-4213886D01*
X13707976Y-4213976D01*
X13707783Y-4214079D01*
X13707620Y-4214228D01*
X13707604Y-4214243D01*
X13707545Y-4214302D01*
X13707471Y-4214406D01*
X13707396Y-4214540D01*
X13707307Y-4214703D01*
X13707247Y-4214897D01*
X13707189Y-4215120D01*
X13707173Y-4215372D01*
Y-4215491D01*
X13707203Y-4215625D01*
X13707233Y-4215773D01*
X13707278Y-4215966D01*
X13707367Y-4216160D01*
X13707471Y-4216353D01*
X13707620Y-4216546D01*
X13707634Y-4216561D01*
X13707694Y-4216620D01*
X13707798Y-4216695D01*
X13707946Y-4216784D01*
X13708125Y-4216888D01*
X13708347Y-4216977D01*
X13708615Y-4217066D01*
X13708927Y-4217126D01*
X13708718Y-4218329D01*
X13708704D01*
X13708660Y-4218314D01*
X13708600Y-4218299D01*
X13708525Y-4218285D01*
X13708422Y-4218255D01*
X13708303Y-4218225D01*
X13708035Y-4218121D01*
X13707738Y-4218002D01*
X13707426Y-4217824D01*
X13707129Y-4217616D01*
X13706862Y-4217348D01*
X13706847Y-4217333D01*
X13706832Y-4217319D01*
X13706802Y-4217274D01*
X13706758Y-4217200D01*
X13706713Y-4217126D01*
X13706653Y-4217036D01*
X13706520Y-4216813D01*
X13706401Y-4216531D01*
X13706296Y-4216189D01*
X13706222Y-4215818D01*
X13706193Y-4215610D01*
Y-4215268D01*
X13706207Y-4215120D01*
X13706238Y-4214926D01*
X13706282Y-4214703D01*
X13706342Y-4214451D01*
X13706431Y-4214198D01*
X13706549Y-4213946D01*
Y-4213931D01*
X13706564Y-4213916D01*
X13706609Y-4213827D01*
X13706683Y-4213708D01*
X13706787Y-4213559D01*
X13706921Y-4213396D01*
X13707084Y-4213217D01*
X13707278Y-4213054D01*
X13707485Y-4212906D01*
X13707515Y-4212891D01*
X13707589Y-4212846D01*
X13707709Y-4212787D01*
X13707856Y-4212727D01*
X13708051Y-4212668D01*
X13708258Y-4212608D01*
X13708481Y-4212564D01*
X13708734Y-4212549D01*
X13708763D01*
X13708838D01*
X13708956Y-4212564D01*
X13709105Y-4212593D01*
X13709283Y-4212638D01*
X13709476Y-4212697D01*
X13709685Y-4212772D01*
X13709878Y-4212891D01*
X13709907Y-4212906D01*
X13709967Y-4212950D01*
X13710056Y-4213039D01*
X13710175Y-4213143D01*
X13710309Y-4213292D01*
X13710442Y-4213455D01*
X13710591Y-4213663D01*
X13710710Y-4213901D01*
Y-4213886D01*
X13710725Y-4213857D01*
Y-4213812D01*
X13710754Y-4213752D01*
X13710800Y-4213604D01*
X13710889Y-4213411D01*
X13710992Y-4213203D01*
X13711141Y-4212980D01*
X13711320Y-4212757D01*
X13711542Y-4212564D01*
X13711572Y-4212549D01*
X13711661Y-4212490D01*
X13711794Y-4212415D01*
X13711973Y-4212311D01*
X13712196Y-4212222D01*
X13712463Y-4212148D01*
X13712776Y-4212088D01*
X13713116Y-4212073D01*
X13713132D01*
X13713176D01*
X13713236D01*
X13713325Y-4212088D01*
D02*
G37*
G36*
X13711616Y-4219696D02*
X13711780D01*
X13711973Y-4219711D01*
X13712181Y-4219726D01*
X13712627Y-4219771D01*
X13713087Y-4219830D01*
X13713547Y-4219919D01*
X13713756Y-4219978D01*
X13713964Y-4220038D01*
X13713978D01*
X13714009Y-4220053D01*
X13714069Y-4220068D01*
X13714142Y-4220097D01*
X13714231Y-4220142D01*
X13714320Y-4220186D01*
X13714558Y-4220305D01*
X13714825Y-4220454D01*
X13715093Y-4220632D01*
X13715360Y-4220840D01*
X13715598Y-4221093D01*
Y-4221108D01*
X13715629Y-4221122D01*
X13715643Y-4221167D01*
X13715687Y-4221212D01*
X13715776Y-4221375D01*
X13715881Y-4221568D01*
X13715985Y-4221836D01*
X13716074Y-4222133D01*
X13716133Y-4222475D01*
X13716163Y-4222861D01*
Y-4222995D01*
X13716149Y-4223099D01*
X13716133Y-4223218D01*
X13716104Y-4223351D01*
X13716074Y-4223500D01*
X13716044Y-4223663D01*
X13715925Y-4224020D01*
X13715836Y-4224213D01*
X13715747Y-4224391D01*
X13715629Y-4224585D01*
X13715494Y-4224763D01*
X13715345Y-4224926D01*
X13715167Y-4225090D01*
X13715153Y-4225105D01*
X13715109Y-4225135D01*
X13715034Y-4225179D01*
X13714929Y-4225239D01*
X13714796Y-4225313D01*
X13714633Y-4225387D01*
X13714440Y-4225476D01*
X13714202Y-4225565D01*
X13713949Y-4225655D01*
X13713652Y-4225744D01*
X13713325Y-4225818D01*
X13712969Y-4225892D01*
X13712567Y-4225952D01*
X13712151Y-4225996D01*
X13711676Y-4226026D01*
X13711185Y-4226041D01*
X13711171D01*
X13711111D01*
X13711022D01*
X13710903D01*
X13710754Y-4226026D01*
X13710591D01*
X13710398Y-4226011D01*
X13710189Y-4225996D01*
X13709744Y-4225952D01*
X13709283Y-4225892D01*
X13708823Y-4225818D01*
X13708615Y-4225759D01*
X13708407Y-4225699D01*
X13708392D01*
X13708362Y-4225684D01*
X13708303Y-4225655D01*
X13708229Y-4225625D01*
X13708140Y-4225595D01*
X13708035Y-4225551D01*
X13707798Y-4225432D01*
X13707531Y-4225283D01*
X13707263Y-4225105D01*
X13707010Y-4224897D01*
X13706772Y-4224644D01*
Y-4224629D01*
X13706742Y-4224614D01*
X13706713Y-4224570D01*
X13706683Y-4224510D01*
X13706594Y-4224362D01*
X13706475Y-4224154D01*
X13706371Y-4223901D01*
X13706282Y-4223589D01*
X13706222Y-4223247D01*
X13706193Y-4222861D01*
Y-4222727D01*
X13706207Y-4222579D01*
X13706238Y-4222401D01*
X13706267Y-4222192D01*
X13706327Y-4221955D01*
X13706416Y-4221717D01*
X13706520Y-4221494D01*
X13706534Y-4221464D01*
X13706580Y-4221390D01*
X13706653Y-4221286D01*
X13706742Y-4221137D01*
X13706876Y-4220989D01*
X13707040Y-4220826D01*
X13707218Y-4220662D01*
X13707426Y-4220513D01*
X13707456Y-4220498D01*
X13707531Y-4220454D01*
X13707664Y-4220380D01*
X13707827Y-4220291D01*
X13708035Y-4220201D01*
X13708287Y-4220097D01*
X13708571Y-4219993D01*
X13708882Y-4219904D01*
X13708898D01*
X13708927Y-4219889D01*
X13708971D01*
X13709045Y-4219874D01*
X13709120Y-4219845D01*
X13709224Y-4219830D01*
X13709358Y-4219815D01*
X13709491Y-4219785D01*
X13709655Y-4219771D01*
X13709818Y-4219756D01*
X13710011Y-4219726D01*
X13710220Y-4219711D01*
X13710442Y-4219696D01*
X13710665D01*
X13711185Y-4219681D01*
X13711200D01*
X13711260D01*
X13711349D01*
X13711467D01*
X13711616Y-4219696D01*
D02*
G37*
G36*
X13716000Y-4230305D02*
X13708362D01*
X13708376Y-4230320D01*
X13708436Y-4230380D01*
X13708511Y-4230484D01*
X13708615Y-4230617D01*
X13708749Y-4230781D01*
X13708882Y-4230974D01*
X13709045Y-4231197D01*
X13709194Y-4231450D01*
Y-4231465D01*
X13709209Y-4231479D01*
X13709269Y-4231568D01*
X13709343Y-4231702D01*
X13709432Y-4231866D01*
X13709536Y-4232059D01*
X13709625Y-4232267D01*
X13709729Y-4232490D01*
X13709818Y-4232698D01*
X13708645D01*
Y-4232683D01*
X13708629Y-4232653D01*
X13708600Y-4232594D01*
X13708556Y-4232534D01*
X13708511Y-4232445D01*
X13708467Y-4232341D01*
X13708333Y-4232103D01*
X13708169Y-4231836D01*
X13707976Y-4231539D01*
X13707753Y-4231241D01*
X13707515Y-4230959D01*
X13707500Y-4230944D01*
X13707485Y-4230930D01*
X13707396Y-4230840D01*
X13707263Y-4230706D01*
X13707100Y-4230543D01*
X13706891Y-4230365D01*
X13706669Y-4230186D01*
X13706431Y-4230023D01*
X13706193Y-4229890D01*
Y-4229102D01*
X13716000D01*
Y-4230305D01*
D02*
G37*
G36*
X13713073Y-4238285D02*
X13711869D01*
Y-4234615D01*
X13713073D01*
Y-4238285D01*
D02*
G37*
G36*
X13716000Y-4240172D02*
X13713043Y-4241301D01*
Y-4245402D01*
X13716000Y-4246457D01*
Y-4247809D01*
Y-4249265D01*
X13713043Y-4250395D01*
Y-4254496D01*
X13716000Y-4255551D01*
Y-4256918D01*
X13706238Y-4253188D01*
Y-4251777D01*
X13715980Y-4247817D01*
X13706238Y-4244095D01*
Y-4242683D01*
X13716000Y-4238716D01*
Y-4240172D01*
D02*
G37*
G36*
Y-4260603D02*
X13708362D01*
X13708376Y-4260618D01*
X13708436Y-4260677D01*
X13708511Y-4260781D01*
X13708615Y-4260915D01*
X13708749Y-4261078D01*
X13708882Y-4261272D01*
X13709045Y-4261494D01*
X13709194Y-4261747D01*
Y-4261762D01*
X13709209Y-4261777D01*
X13709269Y-4261866D01*
X13709343Y-4262000D01*
X13709432Y-4262163D01*
X13709536Y-4262356D01*
X13709625Y-4262564D01*
X13709729Y-4262787D01*
X13709818Y-4262995D01*
X13708645D01*
Y-4262980D01*
X13708629Y-4262951D01*
X13708600Y-4262891D01*
X13708556Y-4262832D01*
X13708511Y-4262743D01*
X13708467Y-4262639D01*
X13708333Y-4262401D01*
X13708169Y-4262133D01*
X13707976Y-4261836D01*
X13707753Y-4261539D01*
X13707515Y-4261257D01*
X13707500Y-4261242D01*
X13707485Y-4261227D01*
X13707396Y-4261138D01*
X13707263Y-4261004D01*
X13707100Y-4260841D01*
X13706891Y-4260662D01*
X13706669Y-4260484D01*
X13706431Y-4260321D01*
X13706193Y-4260187D01*
Y-4259399D01*
X13716000D01*
Y-4260603D01*
D02*
G37*
G36*
X13713073Y-4268582D02*
X13711869D01*
Y-4264912D01*
X13713073D01*
Y-4268582D01*
D02*
G37*
G36*
X13713533Y-4269756D02*
X13713727Y-4269786D01*
X13713949Y-4269830D01*
X13714202Y-4269919D01*
X13714469Y-4270023D01*
X13714722Y-4270172D01*
X13714751Y-4270187D01*
X13714841Y-4270261D01*
X13714960Y-4270350D01*
X13715109Y-4270499D01*
X13715287Y-4270677D01*
X13715465Y-4270900D01*
X13715629Y-4271168D01*
X13715791Y-4271465D01*
Y-4271480D01*
X13715807Y-4271509D01*
X13715822Y-4271554D01*
X13715851Y-4271613D01*
X13715881Y-4271688D01*
X13715911Y-4271777D01*
X13715970Y-4272014D01*
X13716044Y-4272282D01*
X13716104Y-4272609D01*
X13716149Y-4272951D01*
X13716163Y-4273337D01*
Y-4273560D01*
X13716149Y-4273664D01*
Y-4273798D01*
X13716133Y-4273946D01*
X13716118Y-4274110D01*
X13716074Y-4274452D01*
X13716000Y-4274823D01*
X13715911Y-4275194D01*
X13715791Y-4275551D01*
Y-4275566D01*
X13715776Y-4275596D01*
X13715747Y-4275640D01*
X13715718Y-4275700D01*
X13715629Y-4275863D01*
X13715494Y-4276056D01*
X13715331Y-4276294D01*
X13715138Y-4276517D01*
X13714900Y-4276754D01*
X13714633Y-4276963D01*
X13714618D01*
X13714603Y-4276978D01*
X13714558Y-4277007D01*
X13714498Y-4277037D01*
X13714425Y-4277082D01*
X13714336Y-4277126D01*
X13714113Y-4277215D01*
X13713860Y-4277304D01*
X13713547Y-4277393D01*
X13713221Y-4277453D01*
X13712865Y-4277483D01*
X13712760Y-4276264D01*
X13712776D01*
X13712791D01*
X13712880Y-4276249D01*
X13713013Y-4276220D01*
X13713191Y-4276190D01*
X13713385Y-4276131D01*
X13713593Y-4276071D01*
X13713785Y-4275982D01*
X13713978Y-4275878D01*
X13713994Y-4275863D01*
X13714053Y-4275818D01*
X13714142Y-4275744D01*
X13714247Y-4275625D01*
X13714365Y-4275492D01*
X13714498Y-4275328D01*
X13714618Y-4275120D01*
X13714736Y-4274897D01*
Y-4274883D01*
X13714751Y-4274868D01*
X13714781Y-4274778D01*
X13714825Y-4274645D01*
X13714871Y-4274452D01*
X13714929Y-4274243D01*
X13714974Y-4273976D01*
X13715004Y-4273694D01*
X13715020Y-4273397D01*
Y-4273278D01*
X13715004Y-4273129D01*
X13714989Y-4272966D01*
X13714974Y-4272758D01*
X13714929Y-4272549D01*
X13714885Y-4272327D01*
X13714811Y-4272104D01*
X13714796Y-4272074D01*
X13714767Y-4272014D01*
X13714722Y-4271911D01*
X13714647Y-4271792D01*
X13714558Y-4271643D01*
X13714454Y-4271509D01*
X13714336Y-4271376D01*
X13714202Y-4271257D01*
X13714187Y-4271242D01*
X13714127Y-4271212D01*
X13714053Y-4271168D01*
X13713949Y-4271108D01*
X13713831Y-4271064D01*
X13713682Y-4271019D01*
X13713533Y-4270989D01*
X13713369Y-4270974D01*
X13713354D01*
X13713296D01*
X13713207Y-4270989D01*
X13713102Y-4271004D01*
X13712969Y-4271034D01*
X13712834Y-4271093D01*
X13712701Y-4271153D01*
X13712567Y-4271242D01*
X13712552Y-4271257D01*
X13712507Y-4271287D01*
X13712449Y-4271361D01*
X13712360Y-4271450D01*
X13712271Y-4271569D01*
X13712181Y-4271718D01*
X13712076Y-4271911D01*
X13711987Y-4272119D01*
X13711973Y-4272133D01*
X13711958Y-4272193D01*
X13711929Y-4272312D01*
X13711898Y-4272386D01*
X13711869Y-4272475D01*
X13711840Y-4272594D01*
X13711809Y-4272713D01*
X13711765Y-4272862D01*
X13711720Y-4273010D01*
X13711676Y-4273188D01*
X13711631Y-4273397D01*
X13711572Y-4273619D01*
X13711512Y-4273857D01*
Y-4273872D01*
X13711498Y-4273917D01*
X13711482Y-4273991D01*
X13711453Y-4274080D01*
X13711423Y-4274184D01*
X13711393Y-4274303D01*
X13711320Y-4274585D01*
X13711215Y-4274897D01*
X13711111Y-4275209D01*
X13711007Y-4275492D01*
X13710962Y-4275625D01*
X13710903Y-4275729D01*
Y-4275744D01*
X13710889Y-4275759D01*
X13710829Y-4275848D01*
X13710754Y-4275967D01*
X13710651Y-4276116D01*
X13710516Y-4276294D01*
X13710369Y-4276458D01*
X13710189Y-4276621D01*
X13709996Y-4276769D01*
X13709967Y-4276784D01*
X13709893Y-4276829D01*
X13709789Y-4276873D01*
X13709640Y-4276933D01*
X13709462Y-4277007D01*
X13709254Y-4277052D01*
X13709016Y-4277096D01*
X13708778Y-4277111D01*
X13708763D01*
X13708749D01*
X13708704D01*
X13708645D01*
X13708511Y-4277082D01*
X13708333Y-4277052D01*
X13708109Y-4277007D01*
X13707887Y-4276933D01*
X13707634Y-4276829D01*
X13707396Y-4276695D01*
X13707382D01*
X13707367Y-4276680D01*
X13707292Y-4276621D01*
X13707173Y-4276517D01*
X13707025Y-4276383D01*
X13706876Y-4276220D01*
X13706713Y-4276012D01*
X13706549Y-4275759D01*
X13706416Y-4275477D01*
Y-4275462D01*
X13706401Y-4275447D01*
X13706385Y-4275403D01*
X13706356Y-4275328D01*
X13706342Y-4275254D01*
X13706311Y-4275165D01*
X13706238Y-4274957D01*
X13706178Y-4274689D01*
X13706133Y-4274392D01*
X13706089Y-4274050D01*
X13706074Y-4273694D01*
Y-4273515D01*
X13706089Y-4273411D01*
Y-4273307D01*
X13706118Y-4273055D01*
X13706163Y-4272758D01*
X13706222Y-4272431D01*
X13706311Y-4272104D01*
X13706431Y-4271792D01*
Y-4271777D01*
X13706445Y-4271762D01*
X13706460Y-4271718D01*
X13706490Y-4271658D01*
X13706580Y-4271509D01*
X13706683Y-4271316D01*
X13706832Y-4271108D01*
X13707010Y-4270900D01*
X13707218Y-4270692D01*
X13707456Y-4270514D01*
X13707485Y-4270499D01*
X13707574Y-4270439D01*
X13707723Y-4270365D01*
X13707902Y-4270291D01*
X13708125Y-4270202D01*
X13708392Y-4270113D01*
X13708674Y-4270053D01*
X13708986Y-4270023D01*
X13709076Y-4271257D01*
X13709060D01*
X13709031D01*
X13708986Y-4271272D01*
X13708927Y-4271287D01*
X13708763Y-4271316D01*
X13708556Y-4271376D01*
X13708333Y-4271465D01*
X13708109Y-4271584D01*
X13707887Y-4271747D01*
X13707694Y-4271940D01*
X13707678Y-4271970D01*
X13707620Y-4272044D01*
X13707545Y-4272178D01*
X13707456Y-4272356D01*
X13707367Y-4272594D01*
X13707292Y-4272891D01*
X13707233Y-4273233D01*
X13707218Y-4273634D01*
Y-4273828D01*
X13707233Y-4273917D01*
Y-4274035D01*
X13707278Y-4274288D01*
X13707322Y-4274570D01*
X13707396Y-4274853D01*
X13707500Y-4275120D01*
X13707574Y-4275239D01*
X13707649Y-4275343D01*
X13707664Y-4275358D01*
X13707723Y-4275417D01*
X13707812Y-4275507D01*
X13707946Y-4275596D01*
X13708094Y-4275700D01*
X13708273Y-4275774D01*
X13708467Y-4275833D01*
X13708689Y-4275863D01*
X13708718D01*
X13708778D01*
X13708882Y-4275848D01*
X13709001Y-4275818D01*
X13709135Y-4275774D01*
X13709283Y-4275700D01*
X13709417Y-4275610D01*
X13709551Y-4275492D01*
X13709565Y-4275477D01*
X13709611Y-4275403D01*
X13709640Y-4275358D01*
X13709685Y-4275298D01*
X13709714Y-4275209D01*
X13709758Y-4275105D01*
X13709818Y-4274986D01*
X13709878Y-4274853D01*
X13709922Y-4274704D01*
X13709982Y-4274526D01*
X13710056Y-4274318D01*
X13710116Y-4274095D01*
X13710175Y-4273842D01*
X13710249Y-4273560D01*
Y-4273545D01*
X13710264Y-4273486D01*
X13710280Y-4273411D01*
X13710309Y-4273307D01*
X13710338Y-4273174D01*
X13710383Y-4273025D01*
X13710458Y-4272698D01*
X13710562Y-4272342D01*
X13710665Y-4271985D01*
X13710710Y-4271807D01*
X13710769Y-4271658D01*
X13710829Y-4271509D01*
X13710873Y-4271390D01*
Y-4271376D01*
X13710889Y-4271346D01*
X13710918Y-4271316D01*
X13710947Y-4271257D01*
X13711036Y-4271108D01*
X13711141Y-4270915D01*
X13711289Y-4270707D01*
X13711467Y-4270499D01*
X13711661Y-4270306D01*
X13711869Y-4270143D01*
X13711898Y-4270128D01*
X13711973Y-4270083D01*
X13712092Y-4270009D01*
X13712271Y-4269934D01*
X13712463Y-4269860D01*
X13712701Y-4269786D01*
X13712969Y-4269741D01*
X13713251Y-4269726D01*
X13713265D01*
X13713280D01*
X13713325D01*
X13713385D01*
X13713533Y-4269756D01*
D02*
G37*
G36*
X13711378Y-4278716D02*
X13711572D01*
X13711765Y-4278731D01*
X13711987Y-4278746D01*
X13712463Y-4278805D01*
X13712969Y-4278879D01*
X13713458Y-4278983D01*
X13713682Y-4279043D01*
X13713905Y-4279117D01*
X13713920D01*
X13713949Y-4279132D01*
X13714009Y-4279162D01*
X13714083Y-4279192D01*
X13714187Y-4279236D01*
X13714291Y-4279281D01*
X13714529Y-4279414D01*
X13714811Y-4279593D01*
X13715093Y-4279801D01*
X13715360Y-4280038D01*
X13715598Y-4280321D01*
Y-4280336D01*
X13715629Y-4280351D01*
X13715643Y-4280395D01*
X13715687Y-4280469D01*
X13715732Y-4280544D01*
X13715776Y-4280633D01*
X13715881Y-4280856D01*
X13715985Y-4281138D01*
X13716074Y-4281450D01*
X13716133Y-4281822D01*
X13716163Y-4282208D01*
Y-4282312D01*
X13716149Y-4282401D01*
Y-4282490D01*
X13716133Y-4282609D01*
X13716089Y-4282877D01*
X13716014Y-4283174D01*
X13715896Y-4283486D01*
X13715747Y-4283783D01*
X13715540Y-4284080D01*
X13715524Y-4284095D01*
X13715509Y-4284110D01*
X13715420Y-4284199D01*
X13715271Y-4284318D01*
X13715078Y-4284467D01*
X13714825Y-4284615D01*
X13714514Y-4284749D01*
X13714158Y-4284868D01*
X13713741Y-4284942D01*
X13713652Y-4283798D01*
X13713667D01*
X13713682D01*
X13713727Y-4283783D01*
X13713785Y-4283768D01*
X13713934Y-4283738D01*
X13714098Y-4283679D01*
X13714291Y-4283605D01*
X13714484Y-4283516D01*
X13714678Y-4283397D01*
X13714825Y-4283248D01*
X13714841Y-4283233D01*
X13714885Y-4283174D01*
X13714945Y-4283085D01*
X13715004Y-4282951D01*
X13715063Y-4282802D01*
X13715123Y-4282624D01*
X13715167Y-4282416D01*
X13715182Y-4282178D01*
Y-4282089D01*
X13715167Y-4281985D01*
X13715153Y-4281851D01*
X13715123Y-4281703D01*
X13715078Y-4281539D01*
X13715020Y-4281376D01*
X13714929Y-4281212D01*
X13714915Y-4281198D01*
X13714885Y-4281138D01*
X13714825Y-4281064D01*
X13714751Y-4280975D01*
X13714662Y-4280856D01*
X13714543Y-4280752D01*
X13714410Y-4280633D01*
X13714261Y-4280529D01*
X13714247Y-4280514D01*
X13714187Y-4280484D01*
X13714083Y-4280440D01*
X13713949Y-4280365D01*
X13713785Y-4280306D01*
X13713593Y-4280232D01*
X13713369Y-4280157D01*
X13713116Y-4280083D01*
X13713102D01*
X13713087Y-4280068D01*
X13713043D01*
X13712998Y-4280053D01*
X13712849Y-4280023D01*
X13712656Y-4279994D01*
X13712434Y-4279964D01*
X13712196Y-4279934D01*
X13711929Y-4279905D01*
X13711646D01*
X13711631D01*
X13711587D01*
X13711512D01*
X13711409D01*
X13711438Y-4279920D01*
X13711498Y-4279979D01*
X13711616Y-4280053D01*
X13711735Y-4280172D01*
X13711884Y-4280306D01*
X13712047Y-4280484D01*
X13712196Y-4280677D01*
X13712345Y-4280900D01*
X13712360Y-4280930D01*
X13712404Y-4281004D01*
X13712449Y-4281138D01*
X13712507Y-4281302D01*
X13712582Y-4281495D01*
X13712627Y-4281718D01*
X13712671Y-4281970D01*
X13712686Y-4282238D01*
Y-4282357D01*
X13712671Y-4282446D01*
X13712656Y-4282550D01*
X13712642Y-4282668D01*
X13712582Y-4282951D01*
X13712478Y-4283278D01*
X13712404Y-4283441D01*
X13712314Y-4283619D01*
X13712211Y-4283783D01*
X13712092Y-4283961D01*
X13711958Y-4284125D01*
X13711809Y-4284288D01*
X13711794Y-4284303D01*
X13711765Y-4284318D01*
X13711720Y-4284362D01*
X13711646Y-4284422D01*
X13711556Y-4284481D01*
X13711453Y-4284556D01*
X13711334Y-4284630D01*
X13711185Y-4284704D01*
X13711036Y-4284778D01*
X13710858Y-4284853D01*
X13710665Y-4284927D01*
X13710458Y-4284987D01*
X13710234Y-4285046D01*
X13710011Y-4285091D01*
X13709758Y-4285105D01*
X13709491Y-4285120D01*
X13709476D01*
X13709432D01*
X13709343D01*
X13709238Y-4285105D01*
X13709120Y-4285091D01*
X13708971Y-4285076D01*
X13708807Y-4285046D01*
X13708629Y-4285016D01*
X13708258Y-4284912D01*
X13708051Y-4284838D01*
X13707856Y-4284749D01*
X13707649Y-4284660D01*
X13707456Y-4284541D01*
X13707278Y-4284407D01*
X13707100Y-4284258D01*
X13707084Y-4284243D01*
X13707054Y-4284214D01*
X13707010Y-4284169D01*
X13706951Y-4284095D01*
X13706891Y-4284021D01*
X13706816Y-4283917D01*
X13706727Y-4283798D01*
X13706638Y-4283649D01*
X13706564Y-4283501D01*
X13706475Y-4283337D01*
X13706327Y-4282966D01*
X13706282Y-4282758D01*
X13706238Y-4282535D01*
X13706207Y-4282297D01*
X13706193Y-4282059D01*
Y-4281970D01*
X13706207Y-4281896D01*
Y-4281822D01*
X13706222Y-4281718D01*
X13706252Y-4281480D01*
X13706327Y-4281212D01*
X13706416Y-4280930D01*
X13706534Y-4280618D01*
X13706713Y-4280321D01*
Y-4280306D01*
X13706742Y-4280291D01*
X13706772Y-4280247D01*
X13706802Y-4280187D01*
X13706921Y-4280053D01*
X13707084Y-4279875D01*
X13707307Y-4279682D01*
X13707545Y-4279474D01*
X13707842Y-4279281D01*
X13708184Y-4279117D01*
X13708198D01*
X13708229Y-4279102D01*
X13708287Y-4279073D01*
X13708362Y-4279058D01*
X13708451Y-4279013D01*
X13708571Y-4278983D01*
X13708718Y-4278954D01*
X13708882Y-4278909D01*
X13709060Y-4278865D01*
X13709269Y-4278835D01*
X13709491Y-4278790D01*
X13709729Y-4278761D01*
X13709996Y-4278746D01*
X13710280Y-4278716D01*
X13710591Y-4278701D01*
X13710918D01*
X13710933D01*
X13711007D01*
X13711096D01*
X13711230D01*
X13711378Y-4278716D01*
D02*
G37*
G36*
X13713667Y-4287661D02*
X13716000D01*
Y-4288865D01*
X13713667D01*
Y-4293099D01*
X13712567D01*
X13706252Y-4288642D01*
Y-4287661D01*
X13712567D01*
Y-4286339D01*
X13713667D01*
Y-4287661D01*
D02*
G37*
G36*
X13712924Y-4293828D02*
X13713043Y-4293842D01*
X13713176Y-4293857D01*
X13713325Y-4293872D01*
X13713489Y-4293902D01*
X13713845Y-4294006D01*
X13714216Y-4294140D01*
X13714425Y-4294229D01*
X13714618Y-4294333D01*
X13714811Y-4294452D01*
X13714989Y-4294585D01*
X13715004Y-4294600D01*
X13715034Y-4294630D01*
X13715093Y-4294690D01*
X13715167Y-4294764D01*
X13715256Y-4294853D01*
X13715360Y-4294972D01*
X13715465Y-4295106D01*
X13715569Y-4295269D01*
X13715687Y-4295432D01*
X13715791Y-4295626D01*
X13715896Y-4295848D01*
X13715985Y-4296071D01*
X13716060Y-4296324D01*
X13716118Y-4296577D01*
X13716149Y-4296859D01*
X13716163Y-4297156D01*
Y-4297290D01*
X13716149Y-4297379D01*
X13716133Y-4297483D01*
X13716118Y-4297617D01*
X13716104Y-4297765D01*
X13716074Y-4297929D01*
X13715985Y-4298271D01*
X13715851Y-4298627D01*
X13715762Y-4298806D01*
X13715658Y-4298984D01*
X13715554Y-4299162D01*
X13715420Y-4299326D01*
X13715405Y-4299340D01*
X13715391Y-4299355D01*
X13715345Y-4299400D01*
X13715287Y-4299459D01*
X13715212Y-4299519D01*
X13715123Y-4299593D01*
X13715020Y-4299667D01*
X13714900Y-4299756D01*
X13714618Y-4299920D01*
X13714276Y-4300083D01*
X13713889Y-4300202D01*
X13713667Y-4300247D01*
X13713444Y-4300276D01*
X13713354Y-4299013D01*
X13713369D01*
X13713400D01*
X13713444Y-4298999D01*
X13713503Y-4298984D01*
X13713667Y-4298939D01*
X13713875Y-4298880D01*
X13714098Y-4298806D01*
X13714320Y-4298687D01*
X13714543Y-4298553D01*
X13714736Y-4298375D01*
X13714751Y-4298345D01*
X13714811Y-4298285D01*
X13714871Y-4298181D01*
X13714960Y-4298033D01*
X13715034Y-4297854D01*
X13715109Y-4297646D01*
X13715167Y-4297409D01*
X13715182Y-4297156D01*
Y-4297067D01*
X13715167Y-4297007D01*
X13715153Y-4296844D01*
X13715109Y-4296636D01*
X13715020Y-4296413D01*
X13714915Y-4296161D01*
X13714751Y-4295923D01*
X13714662Y-4295804D01*
X13714543Y-4295685D01*
X13714529D01*
X13714514Y-4295655D01*
X13714425Y-4295596D01*
X13714276Y-4295492D01*
X13714083Y-4295388D01*
X13713831Y-4295284D01*
X13713533Y-4295180D01*
X13713191Y-4295121D01*
X13712805Y-4295091D01*
X13712791D01*
X13712760D01*
X13712701D01*
X13712642Y-4295106D01*
X13712552D01*
X13712449Y-4295121D01*
X13712211Y-4295165D01*
X13711958Y-4295224D01*
X13711691Y-4295328D01*
X13711423Y-4295477D01*
X13711185Y-4295670D01*
X13711156Y-4295700D01*
X13711096Y-4295774D01*
X13710992Y-4295893D01*
X13710889Y-4296071D01*
X13710784Y-4296279D01*
X13710680Y-4296547D01*
X13710620Y-4296844D01*
X13710591Y-4297171D01*
Y-4297275D01*
X13710605Y-4297379D01*
X13710620Y-4297527D01*
X13710665Y-4297691D01*
X13710710Y-4297869D01*
X13710784Y-4298047D01*
X13710873Y-4298226D01*
X13710889Y-4298241D01*
X13710918Y-4298300D01*
X13710978Y-4298389D01*
X13711051Y-4298493D01*
X13711156Y-4298597D01*
X13711274Y-4298716D01*
X13711409Y-4298835D01*
X13711556Y-4298939D01*
X13711393Y-4300068D01*
X13706385Y-4299117D01*
Y-4294273D01*
X13707531D01*
Y-4298167D01*
X13710160Y-4298701D01*
X13710145Y-4298687D01*
X13710131Y-4298657D01*
X13710100Y-4298612D01*
X13710056Y-4298553D01*
X13710011Y-4298464D01*
X13709967Y-4298375D01*
X13709847Y-4298137D01*
X13709729Y-4297869D01*
X13709640Y-4297557D01*
X13709565Y-4297216D01*
X13709536Y-4296859D01*
Y-4296740D01*
X13709551Y-4296651D01*
X13709565Y-4296532D01*
X13709580Y-4296413D01*
X13709611Y-4296265D01*
X13709640Y-4296116D01*
X13709758Y-4295774D01*
X13709818Y-4295596D01*
X13709907Y-4295417D01*
X13710011Y-4295224D01*
X13710131Y-4295046D01*
X13710264Y-4294868D01*
X13710427Y-4294704D01*
X13710442Y-4294690D01*
X13710472Y-4294660D01*
X13710516Y-4294615D01*
X13710591Y-4294571D01*
X13710680Y-4294496D01*
X13710784Y-4294422D01*
X13710903Y-4294348D01*
X13711036Y-4294258D01*
X13711200Y-4294169D01*
X13711364Y-4294095D01*
X13711556Y-4294021D01*
X13711750Y-4293947D01*
X13711973Y-4293902D01*
X13712196Y-4293857D01*
X13712449Y-4293828D01*
X13712701Y-4293813D01*
X13712716D01*
X13712760D01*
X13712834D01*
X13712924Y-4293828D01*
D02*
G37*
G36*
X13713325Y-4301480D02*
X13713444Y-4301495D01*
X13713563Y-4301510D01*
X13713711Y-4301540D01*
X13713860Y-4301584D01*
X13714202Y-4301688D01*
X13714395Y-4301762D01*
X13714573Y-4301866D01*
X13714751Y-4301971D01*
X13714929Y-4302089D01*
X13715109Y-4302238D01*
X13715287Y-4302401D01*
X13715302Y-4302416D01*
X13715331Y-4302446D01*
X13715360Y-4302491D01*
X13715420Y-4302565D01*
X13715494Y-4302654D01*
X13715569Y-4302773D01*
X13715643Y-4302906D01*
X13715718Y-4303040D01*
X13715807Y-4303204D01*
X13715881Y-4303382D01*
X13715955Y-4303575D01*
X13716029Y-4303783D01*
X13716089Y-4304006D01*
X13716118Y-4304244D01*
X13716149Y-4304496D01*
X13716163Y-4304749D01*
Y-4304868D01*
X13716149Y-4304957D01*
X13716133Y-4305076D01*
X13716118Y-4305195D01*
X13716104Y-4305343D01*
X13716074Y-4305492D01*
X13715985Y-4305834D01*
X13715836Y-4306190D01*
X13715762Y-4306369D01*
X13715658Y-4306532D01*
X13715540Y-4306711D01*
X13715405Y-4306874D01*
X13715391Y-4306889D01*
X13715376Y-4306904D01*
X13715331Y-4306948D01*
X13715271Y-4307008D01*
X13715182Y-4307067D01*
X13715093Y-4307141D01*
X13714989Y-4307231D01*
X13714871Y-4307305D01*
X13714573Y-4307483D01*
X13714231Y-4307632D01*
X13713845Y-4307766D01*
X13713638Y-4307810D01*
X13713414Y-4307840D01*
X13713251Y-4306636D01*
X13713265D01*
X13713296Y-4306621D01*
X13713354D01*
X13713414Y-4306591D01*
X13713593Y-4306547D01*
X13713816Y-4306472D01*
X13714053Y-4306383D01*
X13714305Y-4306265D01*
X13714529Y-4306116D01*
X13714722Y-4305952D01*
X13714736Y-4305923D01*
X13714796Y-4305863D01*
X13714856Y-4305759D01*
X13714945Y-4305611D01*
X13715020Y-4305447D01*
X13715093Y-4305239D01*
X13715153Y-4305002D01*
X13715167Y-4304749D01*
Y-4304660D01*
X13715153Y-4304601D01*
X13715138Y-4304452D01*
X13715093Y-4304259D01*
X13715020Y-4304021D01*
X13714929Y-4303783D01*
X13714781Y-4303546D01*
X13714589Y-4303322D01*
X13714558Y-4303293D01*
X13714484Y-4303233D01*
X13714365Y-4303144D01*
X13714187Y-4303026D01*
X13713978Y-4302921D01*
X13713727Y-4302832D01*
X13713444Y-4302773D01*
X13713132Y-4302743D01*
X13713116D01*
X13713102D01*
X13713058D01*
X13712998Y-4302758D01*
X13712849Y-4302773D01*
X13712656Y-4302817D01*
X13712449Y-4302877D01*
X13712211Y-4302981D01*
X13711987Y-4303115D01*
X13711780Y-4303293D01*
X13711750Y-4303322D01*
X13711691Y-4303382D01*
X13711616Y-4303501D01*
X13711512Y-4303664D01*
X13711409Y-4303857D01*
X13711334Y-4304095D01*
X13711274Y-4304348D01*
X13711245Y-4304645D01*
Y-4304779D01*
X13711260Y-4304883D01*
X13711274Y-4305002D01*
X13711289Y-4305150D01*
X13711320Y-4305314D01*
X13711364Y-4305492D01*
X13710309Y-4305358D01*
Y-4305284D01*
X13710323Y-4305225D01*
Y-4305031D01*
X13710309Y-4304897D01*
X13710280Y-4304704D01*
X13710234Y-4304496D01*
X13710160Y-4304273D01*
X13710071Y-4304036D01*
X13709938Y-4303798D01*
X13709922Y-4303768D01*
X13709863Y-4303694D01*
X13709758Y-4303605D01*
X13709625Y-4303486D01*
X13709462Y-4303367D01*
X13709254Y-4303278D01*
X13709001Y-4303204D01*
X13708704Y-4303174D01*
X13708689D01*
X13708674D01*
X13708600D01*
X13708481Y-4303204D01*
X13708318Y-4303233D01*
X13708154Y-4303278D01*
X13707976Y-4303367D01*
X13707783Y-4303471D01*
X13707620Y-4303620D01*
X13707604Y-4303635D01*
X13707545Y-4303694D01*
X13707471Y-4303798D01*
X13707396Y-4303932D01*
X13707307Y-4304095D01*
X13707247Y-4304288D01*
X13707189Y-4304511D01*
X13707173Y-4304764D01*
Y-4304883D01*
X13707203Y-4305016D01*
X13707233Y-4305165D01*
X13707278Y-4305358D01*
X13707367Y-4305551D01*
X13707471Y-4305745D01*
X13707620Y-4305938D01*
X13707634Y-4305952D01*
X13707694Y-4306012D01*
X13707798Y-4306086D01*
X13707946Y-4306176D01*
X13708125Y-4306280D01*
X13708347Y-4306369D01*
X13708615Y-4306458D01*
X13708927Y-4306517D01*
X13708718Y-4307721D01*
X13708704D01*
X13708660Y-4307706D01*
X13708600Y-4307691D01*
X13708525Y-4307676D01*
X13708422Y-4307646D01*
X13708303Y-4307617D01*
X13708035Y-4307513D01*
X13707738Y-4307394D01*
X13707426Y-4307216D01*
X13707129Y-4307008D01*
X13706862Y-4306740D01*
X13706847Y-4306725D01*
X13706832Y-4306711D01*
X13706802Y-4306666D01*
X13706758Y-4306591D01*
X13706713Y-4306517D01*
X13706653Y-4306428D01*
X13706520Y-4306205D01*
X13706401Y-4305923D01*
X13706296Y-4305581D01*
X13706222Y-4305210D01*
X13706193Y-4305002D01*
Y-4304660D01*
X13706207Y-4304511D01*
X13706238Y-4304318D01*
X13706282Y-4304095D01*
X13706342Y-4303842D01*
X13706431Y-4303590D01*
X13706549Y-4303337D01*
Y-4303322D01*
X13706564Y-4303308D01*
X13706609Y-4303218D01*
X13706683Y-4303100D01*
X13706787Y-4302951D01*
X13706921Y-4302787D01*
X13707084Y-4302609D01*
X13707278Y-4302446D01*
X13707485Y-4302297D01*
X13707515Y-4302282D01*
X13707589Y-4302238D01*
X13707709Y-4302178D01*
X13707856Y-4302119D01*
X13708051Y-4302060D01*
X13708258Y-4302000D01*
X13708481Y-4301956D01*
X13708734Y-4301941D01*
X13708763D01*
X13708838D01*
X13708956Y-4301956D01*
X13709105Y-4301985D01*
X13709283Y-4302030D01*
X13709476Y-4302089D01*
X13709685Y-4302163D01*
X13709878Y-4302282D01*
X13709907Y-4302297D01*
X13709967Y-4302342D01*
X13710056Y-4302431D01*
X13710175Y-4302535D01*
X13710309Y-4302684D01*
X13710442Y-4302847D01*
X13710591Y-4303055D01*
X13710710Y-4303293D01*
Y-4303278D01*
X13710725Y-4303248D01*
Y-4303204D01*
X13710754Y-4303144D01*
X13710800Y-4302996D01*
X13710889Y-4302802D01*
X13710992Y-4302594D01*
X13711141Y-4302372D01*
X13711320Y-4302149D01*
X13711542Y-4301956D01*
X13711572Y-4301941D01*
X13711661Y-4301881D01*
X13711794Y-4301807D01*
X13711973Y-4301703D01*
X13712196Y-4301614D01*
X13712463Y-4301540D01*
X13712776Y-4301480D01*
X13713116Y-4301465D01*
X13713132D01*
X13713176D01*
X13713236D01*
X13713325Y-4301480D01*
D02*
G37*
%LPC*%
G36*
X13711987Y-4205357D02*
X13709298Y-4206367D01*
X13709283D01*
X13709238Y-4206382D01*
X13709180Y-4206412D01*
X13709091Y-4206442D01*
X13708986Y-4206487D01*
X13708867Y-4206531D01*
X13708585Y-4206620D01*
X13708258Y-4206739D01*
X13707916Y-4206858D01*
X13707574Y-4206962D01*
X13707247Y-4207066D01*
X13707263D01*
X13707292Y-4207081D01*
X13707336D01*
X13707411Y-4207096D01*
X13707500Y-4207126D01*
X13707604Y-4207155D01*
X13707842Y-4207214D01*
X13708140Y-4207289D01*
X13708451Y-4207378D01*
X13708793Y-4207482D01*
X13709135Y-4207601D01*
X13711987Y-4208671D01*
Y-4205357D01*
D02*
G37*
G36*
X13711616Y-4220915D02*
X13711185D01*
X13711156D01*
X13711082D01*
X13710962D01*
X13710800Y-4220929D01*
X13710605D01*
X13710383Y-4220944D01*
X13710145Y-4220959D01*
X13709878Y-4220989D01*
X13709343Y-4221048D01*
X13708823Y-4221152D01*
X13708571Y-4221212D01*
X13708347Y-4221286D01*
X13708154Y-4221375D01*
X13707991Y-4221479D01*
X13707976D01*
X13707961Y-4221509D01*
X13707872Y-4221583D01*
X13707738Y-4221702D01*
X13707589Y-4221866D01*
X13707441Y-4222073D01*
X13707307Y-4222311D01*
X13707218Y-4222579D01*
X13707203Y-4222727D01*
X13707189Y-4222876D01*
Y-4222950D01*
X13707203Y-4223010D01*
X13707218Y-4223158D01*
X13707278Y-4223351D01*
X13707367Y-4223559D01*
X13707485Y-4223782D01*
X13707664Y-4224005D01*
X13707783Y-4224109D01*
X13707902Y-4224198D01*
X13707916D01*
X13707946Y-4224228D01*
X13708005Y-4224258D01*
X13708080Y-4224287D01*
X13708184Y-4224332D01*
X13708303Y-4224391D01*
X13708467Y-4224451D01*
X13708645Y-4224496D01*
X13708853Y-4224555D01*
X13709091Y-4224614D01*
X13709358Y-4224659D01*
X13709669Y-4224718D01*
X13709996Y-4224748D01*
X13710353Y-4224778D01*
X13710754Y-4224808D01*
X13711185D01*
X13711215D01*
X13711289D01*
X13711409D01*
X13711572Y-4224793D01*
X13711765D01*
X13711987Y-4224778D01*
X13712240Y-4224763D01*
X13712493Y-4224733D01*
X13713027Y-4224674D01*
X13713563Y-4224570D01*
X13713800Y-4224510D01*
X13714023Y-4224436D01*
X13714231Y-4224347D01*
X13714395Y-4224258D01*
X13714410D01*
X13714425Y-4224228D01*
X13714514Y-4224154D01*
X13714647Y-4224035D01*
X13714781Y-4223871D01*
X13714929Y-4223663D01*
X13715063Y-4223426D01*
X13715153Y-4223158D01*
X13715167Y-4223010D01*
X13715182Y-4222861D01*
Y-4222787D01*
X13715167Y-4222727D01*
X13715138Y-4222579D01*
X13715078Y-4222386D01*
X13714989Y-4222163D01*
X13714856Y-4221940D01*
X13714767Y-4221821D01*
X13714647Y-4221702D01*
X13714529Y-4221583D01*
X13714395Y-4221479D01*
X13714380D01*
X13714351Y-4221449D01*
X13714305Y-4221420D01*
X13714231Y-4221390D01*
X13714142Y-4221346D01*
X13714009Y-4221301D01*
X13713860Y-4221256D01*
X13713696Y-4221197D01*
X13713489Y-4221137D01*
X13713265Y-4221093D01*
X13712998Y-4221048D01*
X13712701Y-4221004D01*
X13712374Y-4220959D01*
X13712018Y-4220944D01*
X13711616Y-4220915D01*
D02*
G37*
G36*
X13711987Y-4241717D02*
X13709298Y-4242727D01*
X13709283D01*
X13709238Y-4242742D01*
X13709180Y-4242772D01*
X13709091Y-4242802D01*
X13708986Y-4242846D01*
X13708867Y-4242891D01*
X13708585Y-4242980D01*
X13708258Y-4243099D01*
X13707916Y-4243218D01*
X13707574Y-4243322D01*
X13707247Y-4243426D01*
X13707263D01*
X13707292Y-4243441D01*
X13707336D01*
X13707411Y-4243456D01*
X13707500Y-4243485D01*
X13707604Y-4243515D01*
X13707842Y-4243575D01*
X13708140Y-4243649D01*
X13708451Y-4243738D01*
X13708793Y-4243842D01*
X13709135Y-4243961D01*
X13711987Y-4245031D01*
Y-4241717D01*
D02*
G37*
G36*
Y-4250811D02*
X13709298Y-4251821D01*
X13709283D01*
X13709238Y-4251836D01*
X13709180Y-4251866D01*
X13709091Y-4251895D01*
X13708986Y-4251940D01*
X13708867Y-4251985D01*
X13708585Y-4252074D01*
X13708258Y-4252193D01*
X13707916Y-4252312D01*
X13707574Y-4252415D01*
X13707247Y-4252520D01*
X13707263D01*
X13707292Y-4252534D01*
X13707336D01*
X13707411Y-4252549D01*
X13707500Y-4252579D01*
X13707604Y-4252609D01*
X13707842Y-4252668D01*
X13708140Y-4252743D01*
X13708451Y-4252832D01*
X13708793Y-4252936D01*
X13709135Y-4253055D01*
X13711987Y-4254124D01*
Y-4250811D01*
D02*
G37*
G36*
X13709447Y-4280038D02*
X13709432D01*
X13709402D01*
X13709343D01*
X13709269Y-4280053D01*
X13709180D01*
X13709091Y-4280068D01*
X13708853Y-4280113D01*
X13708585Y-4280172D01*
X13708318Y-4280276D01*
X13708051Y-4280410D01*
X13707798Y-4280588D01*
X13707767Y-4280618D01*
X13707709Y-4280692D01*
X13707604Y-4280796D01*
X13707485Y-4280960D01*
X13707382Y-4281153D01*
X13707278Y-4281376D01*
X13707218Y-4281628D01*
X13707189Y-4281911D01*
Y-4281985D01*
X13707203Y-4282044D01*
X13707218Y-4282193D01*
X13707263Y-4282386D01*
X13707352Y-4282609D01*
X13707471Y-4282832D01*
X13707620Y-4283070D01*
X13707723Y-4283188D01*
X13707842Y-4283307D01*
X13707872Y-4283337D01*
X13707961Y-4283397D01*
X13708109Y-4283486D01*
X13708303Y-4283590D01*
X13708540Y-4283709D01*
X13708838Y-4283798D01*
X13709165Y-4283857D01*
X13709536Y-4283887D01*
X13709551D01*
X13709580D01*
X13709625D01*
X13709685Y-4283872D01*
X13709863Y-4283857D01*
X13710071Y-4283813D01*
X13710323Y-4283753D01*
X13710576Y-4283649D01*
X13710814Y-4283516D01*
X13711051Y-4283337D01*
X13711082Y-4283307D01*
X13711141Y-4283233D01*
X13711230Y-4283114D01*
X13711334Y-4282951D01*
X13711453Y-4282743D01*
X13711542Y-4282505D01*
X13711602Y-4282238D01*
X13711631Y-4281940D01*
Y-4281866D01*
X13711616Y-4281807D01*
X13711602Y-4281658D01*
X13711556Y-4281465D01*
X13711482Y-4281257D01*
X13711393Y-4281019D01*
X13711245Y-4280796D01*
X13711051Y-4280588D01*
X13711022Y-4280558D01*
X13710947Y-4280499D01*
X13710814Y-4280410D01*
X13710636Y-4280306D01*
X13710398Y-4280217D01*
X13710131Y-4280128D01*
X13709803Y-4280068D01*
X13709447Y-4280038D01*
D02*
G37*
G36*
X13712567Y-4288865D02*
X13708198D01*
X13712567Y-4291926D01*
Y-4288865D01*
D02*
G37*
%LPD*%
D60*
X859790Y457200D02*
Y1176020D01*
X1696720D01*
Y457200D02*
Y1176020D01*
X859790Y457200D02*
X1696720D01*
M02*
