G04*
G04 #@! TF.GenerationSoftware,Altium Limited,Altium Designer,20.2.7 (254)*
G04*
G04 Layer_Color=8421504*
%FSLAX44Y44*%
%MOMM*%
G71*
G04*
G04 #@! TF.SameCoordinates,1E3B47B3-C475-4593-AA8A-A76477CD3576*
G04*
G04*
G04 #@! TF.FilePolarity,Positive*
G04*
G01*
G75*
%ADD14O,1.4000X2.1000*%
%ADD15R,1.4000X2.1000*%
%ADD16O,1.2700X0.6000*%
%ADD17R,1.2700X0.6000*%
%ADD18R,0.3500X0.5500*%
%ADD19R,1.0000X0.5000*%
%ADD20O,1.0000X0.5000*%
%ADD21R,0.5500X1.3500*%
%ADD22R,0.6000X0.9500*%
%ADD23O,0.6800X0.4000*%
%ADD24R,0.6800X0.4000*%
%ADD25R,1.8000X0.7000*%
%ADD26R,1.3500X0.5500*%
%ADD27R,1.0000X0.4000*%
%ADD28R,0.4000X1.0000*%
%ADD29R,5.5000X2.1000*%
D14*
X1465220Y948470D02*
D03*
X1420220D02*
D03*
X1465220Y857470D02*
D03*
D15*
X1420220D02*
D03*
D16*
X1290810Y1073150D02*
D03*
Y1060450D02*
D03*
Y1047750D02*
D03*
Y1035050D02*
D03*
Y1022350D02*
D03*
Y1009650D02*
D03*
Y996950D02*
D03*
Y984250D02*
D03*
Y971550D02*
D03*
Y958850D02*
D03*
X1383810Y1073150D02*
D03*
Y1060450D02*
D03*
Y1047750D02*
D03*
Y1035050D02*
D03*
Y1022350D02*
D03*
Y1009650D02*
D03*
Y996950D02*
D03*
Y984250D02*
D03*
Y971550D02*
D03*
D17*
Y958850D02*
D03*
D18*
X1335330Y1096010D02*
D03*
X1341830D02*
D03*
X1076250Y1079500D02*
D03*
X1082750D02*
D03*
D19*
X1409700Y1032510D02*
D03*
D20*
Y1019810D02*
D03*
Y1007110D02*
D03*
Y994410D02*
D03*
X1463700Y1032510D02*
D03*
Y1019810D02*
D03*
Y1007110D02*
D03*
Y994410D02*
D03*
D21*
X1158370Y1017270D02*
D03*
X1142870D02*
D03*
X1308230Y914400D02*
D03*
X1292730D02*
D03*
X1112650Y1017270D02*
D03*
X1097150D02*
D03*
D22*
X1208960Y1016000D02*
D03*
X1198960D02*
D03*
D23*
X1138750Y864870D02*
D03*
Y877570D02*
D03*
Y890270D02*
D03*
Y902970D02*
D03*
Y915670D02*
D03*
Y928370D02*
D03*
Y941070D02*
D03*
Y953770D02*
D03*
X1083750Y864870D02*
D03*
Y877570D02*
D03*
Y890270D02*
D03*
Y902970D02*
D03*
Y915670D02*
D03*
Y928370D02*
D03*
Y941070D02*
D03*
D24*
Y953770D02*
D03*
D25*
X1370360Y887730D02*
D03*
X1342360D02*
D03*
D26*
X1300480Y865000D02*
D03*
Y849500D02*
D03*
D27*
X1271120Y881870D02*
D03*
Y889870D02*
D03*
Y897870D02*
D03*
Y905870D02*
D03*
Y913870D02*
D03*
Y921870D02*
D03*
Y929870D02*
D03*
Y937870D02*
D03*
Y945870D02*
D03*
Y953870D02*
D03*
Y961870D02*
D03*
X1157120D02*
D03*
Y953870D02*
D03*
Y945870D02*
D03*
Y937870D02*
D03*
Y929870D02*
D03*
Y921870D02*
D03*
Y913870D02*
D03*
Y905870D02*
D03*
Y897870D02*
D03*
Y889870D02*
D03*
Y881870D02*
D03*
D28*
X1254120Y978870D02*
D03*
X1246120D02*
D03*
X1238120D02*
D03*
X1230120D02*
D03*
X1222120D02*
D03*
X1214120D02*
D03*
X1206120D02*
D03*
X1198120D02*
D03*
X1190120D02*
D03*
X1182120D02*
D03*
X1174120D02*
D03*
Y864870D02*
D03*
X1182120D02*
D03*
X1190120D02*
D03*
X1198120D02*
D03*
X1206120D02*
D03*
X1214120D02*
D03*
X1222120D02*
D03*
X1230120D02*
D03*
X1238120D02*
D03*
X1246120D02*
D03*
X1254120D02*
D03*
D29*
X1148820Y1084580D02*
D03*
X1241320D02*
D03*
M02*
