G04*
G04 #@! TF.GenerationSoftware,Altium Limited,Altium Designer,20.2.7 (254)*
G04*
G04 Layer_Physical_Order=2*
G04 Layer_Color=16711680*
%FSLAX44Y44*%
%MOMM*%
G71*
G04*
G04 #@! TF.SameCoordinates,1E3B47B3-C475-4593-AA8A-A76477CD3576*
G04*
G04*
G04 #@! TF.FilePolarity,Positive*
G04*
G01*
G75*
%ADD13C,0.2540*%
%ADD53C,5.3000*%
%ADD54C,1.5750*%
%ADD55R,1.5750X1.5750*%
%ADD56C,1.5080*%
%ADD57R,1.5080X1.5080*%
%ADD58O,3.3000X1.6500*%
%ADD59C,1.2700*%
D13*
X1238250Y883412D02*
Y894206D01*
Y815340D02*
Y883412D01*
X1186434Y898652D02*
X1197864D01*
X1171194D02*
X1186434D01*
X1331468Y1014984D02*
Y1046480D01*
X1326134Y1051814D02*
X1331468Y1046480D01*
X1203793Y1051814D02*
X1326134D01*
X1148421Y996442D02*
X1203793Y1051814D01*
X1058492Y996442D02*
X1148421D01*
X1007110Y945060D02*
X1058492Y996442D01*
X995680Y854710D02*
X1035050Y815340D01*
X995680Y854710D02*
Y956310D01*
X1047496Y1008126D01*
X1131316D01*
X1097280Y927354D02*
X1176274D01*
X1085850Y915924D02*
X1097280Y927354D01*
X1085850Y815340D02*
Y915924D01*
X1111250Y815340D02*
X1138174Y842264D01*
X1251966Y878840D02*
X1275588Y855218D01*
Y803656D02*
Y855218D01*
X1265428Y793496D02*
X1275588Y803656D01*
X1158494Y793496D02*
X1265428D01*
X1136650Y815340D02*
X1158494Y793496D01*
X1162558Y851154D02*
X1176582Y837130D01*
X1189536D01*
X1199388Y827278D01*
Y809498D02*
Y827278D01*
X1188720Y798830D02*
X1199388Y809498D01*
X1178560Y798830D02*
X1188720D01*
X1162050Y815340D02*
X1178560Y798830D01*
X1212850Y815340D02*
Y847850D01*
Y868444D01*
X1195088Y886206D02*
X1212850Y868444D01*
X1201065Y859635D02*
X1212850Y847850D01*
X1186081Y859635D02*
X1201065D01*
X1130046Y915670D02*
X1186081Y859635D01*
X1123188Y915670D02*
X1130046D01*
X1212351Y909311D02*
X1238250Y883412D01*
X1148460Y983996D02*
X1238250Y894206D01*
X1144016Y983996D02*
X1148460D01*
X1250950Y802640D02*
X1263650Y815340D01*
X1225042Y802640D02*
X1250950D01*
X1186434Y898652D02*
Y934720D01*
X1156462Y964692D02*
X1186434Y934720D01*
X1139698Y964692D02*
X1156462D01*
X1224788Y871728D02*
X1225042Y802640D01*
X1197864Y898652D02*
X1224788Y871728D01*
X1289050Y815340D02*
Y858868D01*
X1204817Y943102D02*
X1289050Y858868D01*
X1246400Y924074D02*
X1305814Y983488D01*
X1235202Y952246D02*
X1315974Y1033018D01*
X1118108Y879223D02*
Y897128D01*
Y879223D02*
X1158240Y839091D01*
X1163699D01*
X1187450Y815340D01*
X1118108Y897128D02*
X1120140Y899160D01*
X1136904D01*
X1188720Y847344D01*
X1176274Y1005586D02*
X1178047D01*
X1178650Y1004983D01*
X1269904D01*
X1275588Y1010666D01*
X1326388Y1000760D02*
X1436624D01*
X1321308Y1005840D02*
X1326388Y1000760D01*
X1321308Y1005840D02*
Y1021969D01*
X1326134Y1026795D01*
Y1039368D01*
X1320800Y1044702D02*
X1326134Y1039368D01*
X1218184Y1044702D02*
X1320800D01*
X1188720Y1015238D02*
X1218184Y1044702D01*
X1032110Y843680D02*
Y945060D01*
Y843680D02*
X1060450Y815340D01*
X1089152Y786638D01*
X1311148D01*
X1339850Y815340D01*
X1255268Y954532D02*
X1305814Y1005078D01*
X1027430Y782320D02*
X1060450Y815340D01*
X991870Y782320D02*
X1027430D01*
X958850Y815340D02*
X991870Y782320D01*
D53*
X1653850Y500340D02*
D03*
X903850D02*
D03*
X1653850Y810340D02*
D03*
X903850D02*
D03*
D54*
X1339850Y815340D02*
D03*
X1314450D02*
D03*
X1289050D02*
D03*
X1263650D02*
D03*
X1238250D02*
D03*
X1212850D02*
D03*
X1187450D02*
D03*
X1162050D02*
D03*
X1136650D02*
D03*
X1111250D02*
D03*
X1085850D02*
D03*
X1060450D02*
D03*
X1035050D02*
D03*
X1009650D02*
D03*
X984250D02*
D03*
D55*
X958850D02*
D03*
D56*
X982110Y945060D02*
D03*
X1007110D02*
D03*
D57*
X1032110D02*
D03*
D58*
X1054610Y904060D02*
D03*
X959610D02*
D03*
D59*
X1331468Y1014984D02*
D03*
X1131316Y1008126D02*
D03*
X1176274Y927354D02*
D03*
X1138174Y842264D02*
D03*
X1251966Y878840D02*
D03*
X1162558Y851154D02*
D03*
X1195088Y886206D02*
D03*
X1123188Y915670D02*
D03*
X1212351Y909311D02*
D03*
X1144016Y983996D02*
D03*
X1139698Y964692D02*
D03*
X1171194Y898652D02*
D03*
X1204817Y943102D02*
D03*
X1246400Y924074D02*
D03*
X1305814Y983488D02*
D03*
X1235202Y952246D02*
D03*
X1315974Y1033018D02*
D03*
X1118108Y897128D02*
D03*
X1188720Y847344D02*
D03*
X1176274Y1005586D02*
D03*
X1275588Y1010666D02*
D03*
X1436624Y1000760D02*
D03*
X1188720Y1015238D02*
D03*
X1255268Y954532D02*
D03*
X1305814Y1005078D02*
D03*
M02*
